<?xml version="1.0" encoding="UTF-8"?>
<svg width="1440px" height="800px" viewBox="0 0 1440 800" version="1.1" xmlns="http://www.w3.org/2000/svg" xmlns:xlink="http://www.w3.org/1999/xlink">
    <defs>
        <rect id="path-1" x="24" y="24" width="1392" height="752"></rect>
    </defs>
    <g id="Page-1" stroke="none" stroke-width="1" fill="none" fill-rule="evenodd">
        <g id="Hero-Area">
            <g id="About">
                <g id="Group">
                    <rect id="BG" fill="#FFFFFF" x="0" y="0" width="1440" height="800"></rect>
                    <g id="BG">
                        <use fill="#FFFFFF" fill-rule="evenodd" xlink:href="#path-1"></use>
                        <rect stroke="#082842" stroke-width="2" x="25" y="25" width="1390" height="750"></rect>
                    </g>
                    <path d="M644.36089,725 L486.553184,725 L342.022401,516.925615 L107,516.925615 L107,389.385207 L469.355745,389.385207 C487.373434,389.385207 502.541102,374.576077 502.541102,357.011444 L502.541102,234.900597 C502.541102,217.335965 487.373434,202.526835 469.355745,202.526835 L107,202.526835 L107,75 L476.084573,75 C562.697383,75 633.155445,143.778975 633.155445,228.330827 L633.155445,363.594788 C633.155445,440.626697 574.570151,504.424049 498.648392,515.174581 L644.36089,725 Z M1332.59618,198.39422 L857.117565,198.39422 L752.866455,75 L1332.59618,75 L1332.59618,198.39422 Z M854.372063,461.667866 L854.372063,338.273646 L1332.5934,338.273646 L1332.5934,461.667866 L854.372063,461.667866 Z M1332.59618,725 L752.866455,725 L865.317872,601.60578 L1332.59618,601.60578 L1332.59618,725 Z" id="Combined-Shape" fill="#E8F2FB"></path>
                    <path d="M1004.36364,478.818182 L1004.36364,475.181818 C1004.36364,473.976833 1005.34047,473 1006.54545,473 C1007.75044,473 1008.72727,473.976833 1008.72727,475.181818 L1008.72727,478.818182 L1012.36364,478.818182 C1013.56862,478.818182 1014.54545,479.795015 1014.54545,481 C1014.54545,482.204985 1013.56862,483.181818 1012.36364,483.181818 L1008.72727,483.181818 L1008.72727,486.818182 C1008.72727,488.023167 1007.75044,489 1006.54545,489 C1005.34047,489 1004.36364,488.023167 1004.36364,486.818182 L1004.36364,483.181818 L1000.72727,483.181818 C999.522288,483.181818 998.545455,482.204985 998.545455,481 C998.545455,479.795015 999.522288,478.818182 1000.72727,478.818182 L1004.36364,478.818182 Z M983.272727,478.818182 L983.272727,475.181818 C983.272727,473.976833 984.249561,473 985.454545,473 C986.65953,473 987.636364,473.976833 987.636364,475.181818 L987.636364,478.818182 L991.272727,478.818182 C992.477712,478.818182 993.454545,479.795015 993.454545,481 C993.454545,482.204985 992.477712,483.181818 991.272727,483.181818 L987.636364,483.181818 L987.636364,486.818182 C987.636364,488.023167 986.65953,489 985.454545,489 C984.249561,489 983.272727,488.023167 983.272727,486.818182 L983.272727,483.181818 L979.636364,483.181818 C978.431379,483.181818 977.454545,482.204985 977.454545,481 C977.454545,479.795015 978.431379,478.818182 979.636364,478.818182 L983.272727,478.818182 Z M962.181818,478.818182 L962.181818,475.181818 C962.181818,473.976833 963.158651,473 964.363636,473 C965.568621,473 966.545455,473.976833 966.545455,475.181818 L966.545455,478.818182 L970.181818,478.818182 C971.386803,478.818182 972.363636,479.795015 972.363636,481 C972.363636,482.204985 971.386803,483.181818 970.181818,483.181818 L966.545455,483.181818 L966.545455,486.818182 C966.545455,488.023167 965.568621,489 964.363636,489 C963.158651,489 962.181818,488.023167 962.181818,486.818182 L962.181818,483.181818 L958.545455,483.181818 C957.34047,483.181818 956.363636,482.204985 956.363636,481 C956.363636,479.795015 957.34047,478.818182 958.545455,478.818182 L962.181818,478.818182 Z M941.090909,478.818182 L941.090909,475.181818 C941.090909,473.976833 942.067742,473 943.272727,473 C944.477712,473 945.454545,473.976833 945.454545,475.181818 L945.454545,478.818182 L949.090909,478.818182 C950.295894,478.818182 951.272727,479.795015 951.272727,481 C951.272727,482.204985 950.295894,483.181818 949.090909,483.181818 L945.454545,483.181818 L945.454545,486.818182 C945.454545,488.023167 944.477712,489 943.272727,489 C942.067742,489 941.090909,488.023167 941.090909,486.818182 L941.090909,483.181818 L937.454545,483.181818 C936.249561,483.181818 935.272727,482.204985 935.272727,481 C935.272727,479.795015 936.249561,478.818182 937.454545,478.818182 L941.090909,478.818182 Z M920,478.818182 L920,475.181818 C920,473.976833 920.976833,473 922.181818,473 C923.386803,473 924.363636,473.976833 924.363636,475.181818 L924.363636,478.818182 L928,478.818182 C929.204985,478.818182 930.181818,479.795015 930.181818,481 C930.181818,482.204985 929.204985,483.181818 928,483.181818 L924.363636,483.181818 L924.363636,486.818182 C924.363636,488.023167 923.386803,489 922.181818,489 C920.976833,489 920,488.023167 920,486.818182 L920,483.181818 L916.363636,483.181818 C915.158651,483.181818 914.181818,482.204985 914.181818,481 C914.181818,479.795015 915.158651,478.818182 916.363636,478.818182 L920,478.818182 Z M898.909091,478.818182 L898.909091,475.181818 C898.909091,473.976833 899.885924,473 901.090909,473 C902.295894,473 903.272727,473.976833 903.272727,475.181818 L903.272727,478.818182 L906.909091,478.818182 C908.114076,478.818182 909.090909,479.795015 909.090909,481 C909.090909,482.204985 908.114076,483.181818 906.909091,483.181818 L903.272727,483.181818 L903.272727,486.818182 C903.272727,488.023167 902.295894,489 901.090909,489 C899.885924,489 898.909091,488.023167 898.909091,486.818182 L898.909091,483.181818 L895.272727,483.181818 C894.067742,483.181818 893.090909,482.204985 893.090909,481 C893.090909,479.795015 894.067742,478.818182 895.272727,478.818182 L898.909091,478.818182 Z M877.818182,478.818182 L877.818182,475.181818 C877.818182,473.976833 878.795015,473 880,473 C881.204985,473 882.181818,473.976833 882.181818,475.181818 L882.181818,478.818182 L885.818182,478.818182 C887.023167,478.818182 888,479.795015 888,481 C888,482.204985 887.023167,483.181818 885.818182,483.181818 L882.181818,483.181818 L882.181818,486.818182 C882.181818,488.023167 881.204985,489 880,489 C878.795015,489 877.818182,488.023167 877.818182,486.818182 L877.818182,483.181818 L874.181818,483.181818 C872.976833,483.181818 872,482.204985 872,481 C872,479.795015 872.976833,478.818182 874.181818,478.818182 L877.818182,478.818182 Z" id="invest_pattern" fill="#F70CF7"></path>
                    <path d="M856.235294,144 L860.470588,144 L864,152.470588 L867.529412,144 L871.764706,144 L866.823529,156 L861.176471,156 L856.235294,144 Z M840.705882,144 L844.941176,144 L848.470588,152.470588 L852,144 L856.235294,144 L851.294118,156 L845.647059,156 L840.705882,144 Z M825.176471,144 L829.411765,144 L832.941176,152.470588 L836.470588,144 L840.705882,144 L835.764706,156 L830.117647,156 L825.176471,144 Z M809.647059,144 L813.882353,144 L817.411765,152.470588 L820.941176,144 L825.176471,144 L820.235294,156 L814.588235,156 L809.647059,144 Z M794.117647,144 L798.352941,144 L801.882353,152.470588 L805.411765,144 L809.647059,144 L804.705882,156 L799.058824,156 L794.117647,144 Z M778.588235,144 L782.823529,144 L786.352941,152.470588 L789.882353,144 L794.117647,144 L789.176471,156 L783.529412,156 L778.588235,144 Z M763.058824,144 L767.294118,144 L770.823529,152.470588 L774.352941,144 L778.588235,144 L773.647059,156 L768,156 L763.058824,144 Z M747.529412,144 L751.764706,144 L755.294118,152.470588 L758.823529,144 L763.058824,144 L758.117647,156 L752.470588,156 L747.529412,144 Z M732,144 L736.235294,144 L739.764706,152.470588 L743.294118,144 L747.529412,144 L742.588235,156 L736.941176,156 L732,144 Z" id="think_pattern" fill="#40DFF7"></path>
                    <path d="M1297.18761,640.660807 C1298.24461,641.564095 1298.27401,643.054633 1297.25328,643.990015 L1284.93195,655.281082 C1283.91121,656.216464 1282.22688,656.242482 1281.16988,655.339193 C1280.11288,654.435905 1280.08348,652.945367 1281.10421,652.009985 L1293.42554,640.718918 C1294.44628,639.783536 1296.13061,639.757518 1297.18761,640.660807 Z M1283.55476,640.660807 C1284.61176,641.564095 1284.64116,643.054633 1283.62043,643.990015 L1271.29909,655.281082 C1270.27836,656.216464 1268.59403,656.242482 1267.53703,655.339193 C1266.48003,654.435905 1266.45063,652.945367 1267.47136,652.009985 L1279.79269,640.718918 C1280.81342,639.783536 1282.49776,639.757518 1283.55476,640.660807 Z M1269.92191,640.660807 C1270.97891,641.564095 1271.00831,643.054633 1269.98758,643.990015 L1257.66624,655.281082 C1256.64551,656.216464 1254.96118,656.242482 1253.90418,655.339193 C1252.84718,654.435905 1252.81778,652.945367 1253.83851,652.009985 L1266.15984,640.718918 C1267.18057,639.783536 1268.86491,639.757518 1269.92191,640.660807 Z M1256.32599,640.660807 C1257.33494,641.564095 1257.363,643.054633 1256.38867,643.990015 L1244.6274,655.281082 C1243.65306,656.216464 1242.04529,656.242482 1241.03633,655.339193 C1240.02738,654.435905 1239.99932,652.945367 1240.97365,652.009985 L1252.73492,640.718918 C1253.70926,639.783536 1255.31703,639.757518 1256.32599,640.660807 Z M1242.69314,640.660807 C1243.70209,641.564095 1243.73015,643.054633 1242.75582,643.990015 L1230.99455,655.281082 C1230.02021,656.216464 1228.41244,656.242482 1227.40348,655.339193 C1226.39453,654.435905 1226.36647,652.945367 1227.3408,652.009985 L1239.10207,640.718918 C1240.07641,639.783536 1241.68418,639.757518 1242.69314,640.660807 Z M1229.06028,640.660807 C1230.06924,641.564095 1230.0973,643.054633 1229.12297,643.990015 L1217.3617,655.281082 C1216.38736,656.216464 1214.77959,656.242482 1213.77063,655.339193 C1212.76168,654.435905 1212.73362,652.945367 1213.70795,652.009985 L1225.46922,640.718918 C1226.44356,639.783536 1228.05133,639.757518 1229.06028,640.660807 Z M1215.46436,640.660807 C1216.42527,641.564095 1216.452,643.054633 1215.52406,643.990015 L1204.32285,655.281082 C1203.39491,656.216464 1201.8637,656.242482 1200.90279,655.339193 C1199.94188,654.435905 1199.91515,652.945367 1200.84309,652.009985 L1212.0443,640.718918 C1212.97224,639.783536 1214.50345,639.757518 1215.46436,640.660807 Z M1201.83151,640.660807 C1202.79242,641.564095 1202.81915,643.054633 1201.89121,643.990015 L1190.69,655.281082 C1189.76206,656.216464 1188.23085,656.242482 1187.26994,655.339193 C1186.30903,654.435905 1186.2823,652.945367 1187.21024,652.009985 L1198.41145,640.718918 C1199.33939,639.783536 1200.8706,639.757518 1201.83151,640.660807 Z M1188.19866,640.660807 C1189.15957,641.564095 1189.1863,643.054633 1188.25836,643.990015 L1177.05715,655.281082 C1176.12921,656.216464 1174.598,656.242482 1173.63709,655.339193 C1172.67618,654.435905 1172.64945,652.945367 1173.57739,652.009985 L1184.7786,640.718918 C1185.70654,639.783536 1187.23775,639.757518 1188.19866,640.660807 Z M1174.56581,640.660807 C1175.52672,641.564095 1175.55345,643.054633 1174.62551,643.990015 L1163.4243,655.281082 C1162.49636,656.216464 1160.96515,656.242482 1160.00424,655.339193 C1159.04333,654.435905 1159.0166,652.945367 1159.94454,652.009985 L1171.14575,640.718918 C1172.07369,639.783536 1173.6049,639.757518 1174.56581,640.660807 Z M1160.93296,640.660807 C1161.89387,641.564095 1161.9206,643.054633 1160.99266,643.990015 L1149.79145,655.281082 C1148.86351,656.216464 1147.3323,656.242482 1146.37139,655.339193 C1145.41048,654.435905 1145.38375,652.945367 1146.31169,652.009985 L1157.5129,640.718918 C1158.44084,639.783536 1159.97205,639.757518 1160.93296,640.660807 Z M1147.30011,640.660807 C1148.26102,641.564095 1148.28775,643.054633 1147.35981,643.990015 L1136.1586,655.281082 C1135.23066,656.216464 1133.69945,656.242482 1132.73854,655.339193 C1131.77763,654.435905 1131.7509,652.945367 1132.67884,652.009985 L1143.88005,640.718918 C1144.80799,639.783536 1146.3392,639.757518 1147.30011,640.660807 Z" id="market_pattern" fill="#513BF4"></path>
                    <path d="M1172.06884,319.099067 L1172.32845,318.579456 C1172.62604,317.983838 1173.34934,317.742635 1173.94397,318.040713 C1174.53861,318.338791 1174.77942,319.063275 1174.48183,319.658894 L1173.14553,322.333479 C1172.84794,322.929098 1172.12465,323.170301 1171.53001,322.872223 C1171.2824,322.748101 1171.09614,322.550043 1170.98456,322.31814 C1170.98267,322.314451 1170.9808,322.310749 1170.97894,322.307033 L1169.64264,319.632448 C1169.34505,319.036829 1169.58586,318.312345 1170.1805,318.014267 C1170.77513,317.716189 1171.49843,317.957392 1171.79602,318.55301 L1172.06884,319.099067 Z M1158.22292,319.099067 L1158.48254,318.579456 C1158.78012,317.983838 1159.50342,317.742635 1160.09806,318.040713 C1160.6927,318.338791 1160.9335,319.063275 1160.63591,319.658894 L1159.29961,322.333479 C1159.00202,322.929098 1158.27873,323.170301 1157.68409,322.872223 C1157.43648,322.748101 1157.25022,322.550043 1157.13864,322.31814 C1157.13675,322.314451 1157.13488,322.310749 1157.13302,322.307033 L1155.79672,319.632448 C1155.49913,319.036829 1155.73994,318.312345 1156.33458,318.014267 C1156.92922,317.716189 1157.65251,317.957392 1157.9501,318.55301 L1158.22292,319.099067 Z M1163.87876,307.68186 C1163.99034,307.449957 1164.1766,307.251899 1164.42421,307.127777 C1165.01885,306.829699 1165.74214,307.070902 1166.03973,307.666521 L1167.37603,310.341106 C1167.67362,310.936725 1167.43281,311.661209 1166.83817,311.959287 C1166.24353,312.257365 1165.52024,312.016162 1165.22265,311.420544 L1164.96304,310.900933 L1164.69021,311.44699 C1164.39263,312.042608 1163.66933,312.283811 1163.07469,311.985733 C1162.48005,311.687655 1162.23925,310.963171 1162.53683,310.367552 L1163.87314,307.692967 C1163.87499,307.689251 1163.87687,307.685549 1163.87876,307.68186 Z M1144.37701,319.099067 L1144.63662,318.579456 C1144.93421,317.983838 1145.6575,317.742635 1146.25214,318.040713 C1146.84678,318.338791 1147.08758,319.063275 1146.79,319.658894 L1145.45369,322.333479 C1145.15611,322.929098 1144.43281,323.170301 1143.83817,322.872223 C1143.59056,322.748101 1143.4043,322.550043 1143.29272,322.31814 C1143.29083,322.314451 1143.28896,322.310749 1143.2871,322.307033 L1141.9508,319.632448 C1141.65321,319.036829 1141.89402,318.312345 1142.48866,318.014267 C1143.0833,317.716189 1143.80659,317.957392 1144.10418,318.55301 L1144.37701,319.099067 Z M1150.03284,307.68186 C1150.14442,307.449957 1150.33068,307.251899 1150.57829,307.127777 C1151.17293,306.829699 1151.89622,307.070902 1152.19381,307.666521 L1153.53011,310.341106 C1153.8277,310.936725 1153.58689,311.661209 1152.99225,311.959287 C1152.39762,312.257365 1151.67432,312.016162 1151.37673,311.420544 L1151.11712,310.900933 L1150.8443,311.44699 C1150.54671,312.042608 1149.82341,312.283811 1149.22877,311.985733 C1148.63414,311.687655 1148.39333,310.963171 1148.69092,310.367552 L1150.02722,307.692967 C1150.02908,307.689251 1150.03095,307.685549 1150.03284,307.68186 Z M1130.53109,319.099067 L1130.7907,318.579456 C1131.08829,317.983838 1131.81158,317.742635 1132.40622,318.040713 C1133.00086,318.338791 1133.24167,319.063275 1132.94408,319.658894 L1131.60778,322.333479 C1131.31019,322.929098 1130.5869,323.170301 1129.99226,322.872223 C1129.74464,322.748101 1129.55839,322.550043 1129.4468,322.31814 C1129.44492,322.314451 1129.44304,322.310749 1129.44119,322.307033 L1128.10488,319.632448 C1127.8073,319.036829 1128.0481,318.312345 1128.64274,318.014267 C1129.23738,317.716189 1129.96067,317.957392 1130.25826,318.55301 L1130.53109,319.099067 Z M1136.18692,307.68186 C1136.2985,307.449957 1136.48476,307.251899 1136.73237,307.127777 C1137.32701,306.829699 1138.0503,307.070902 1138.34789,307.666521 L1139.68419,310.341106 C1139.98178,310.936725 1139.74098,311.661209 1139.14634,311.959287 C1138.5517,312.257365 1137.8284,312.016162 1137.53082,311.420544 L1137.2712,310.900933 L1136.99838,311.44699 C1136.70079,312.042608 1135.9775,312.283811 1135.38286,311.985733 C1134.78822,311.687655 1134.54741,310.963171 1134.845,310.367552 L1136.1813,307.692967 C1136.18316,307.689251 1136.18503,307.685549 1136.18692,307.68186 Z M1116.68517,319.099067 L1116.94478,318.579456 C1117.24237,317.983838 1117.96566,317.742635 1118.5603,318.040713 C1119.15494,318.338791 1119.39575,319.063275 1119.09816,319.658894 L1117.76186,322.333479 C1117.46427,322.929098 1116.74098,323.170301 1116.14634,322.872223 C1115.89873,322.748101 1115.71247,322.550043 1115.60089,322.31814 C1115.599,322.314451 1115.59712,322.310749 1115.59527,322.307033 L1114.25897,319.632448 C1113.96138,319.036829 1114.20218,318.312345 1114.79682,318.014267 C1115.39146,317.716189 1116.11476,317.957392 1116.41234,318.55301 L1116.68517,319.099067 Z M1122.341,307.68186 C1122.45258,307.449957 1122.63884,307.251899 1122.88645,307.127777 C1123.48109,306.829699 1124.20439,307.070902 1124.50197,307.666521 L1125.83828,310.341106 C1126.13586,310.936725 1125.89506,311.661209 1125.30042,311.959287 C1124.70578,312.257365 1123.98249,312.016162 1123.6849,311.420544 L1123.42529,310.900933 L1123.15246,311.44699 C1122.85487,312.042608 1122.13158,312.283811 1121.53694,311.985733 C1120.9423,311.687655 1120.70149,310.963171 1120.99908,310.367552 L1122.33538,307.692967 C1122.33724,307.689251 1122.33911,307.685549 1122.341,307.68186 Z M1102.83925,319.099067 L1103.09886,318.579456 C1103.39645,317.983838 1104.11975,317.742635 1104.71439,318.040713 C1105.30902,318.338791 1105.54983,319.063275 1105.25224,319.658894 L1103.91594,322.333479 C1103.61835,322.929098 1102.89506,323.170301 1102.30042,322.872223 C1102.05281,322.748101 1101.86655,322.550043 1101.75497,322.31814 C1101.75308,322.314451 1101.75121,322.310749 1101.74935,322.307033 L1100.41305,319.632448 C1100.11546,319.036829 1100.35627,318.312345 1100.95091,318.014267 C1101.54554,317.716189 1102.26884,317.957392 1102.56643,318.55301 L1102.83925,319.099067 Z M1108.49508,307.68186 C1108.60667,307.449957 1108.79292,307.251899 1109.04054,307.127777 C1109.63518,306.829699 1110.35847,307.070902 1110.65606,307.666521 L1111.99236,310.341106 C1112.28995,310.936725 1112.04914,311.661209 1111.4545,311.959287 C1110.85986,312.257365 1110.13657,312.016162 1109.83898,311.420544 L1109.57937,310.900933 L1109.30654,311.44699 C1109.00895,312.042608 1108.28566,312.283811 1107.69102,311.985733 C1107.09638,311.687655 1106.85558,310.963171 1107.15316,310.367552 L1108.48947,307.692967 C1108.49132,307.689251 1108.49319,307.685549 1108.49508,307.68186 Z M1088.99333,319.099067 L1089.25295,318.579456 C1089.55054,317.983838 1090.27383,317.742635 1090.86847,318.040713 C1091.46311,318.338791 1091.70391,319.063275 1091.40633,319.658894 L1090.07002,322.333479 C1089.77244,322.929098 1089.04914,323.170301 1088.4545,322.872223 C1088.20689,322.748101 1088.02063,322.550043 1087.90905,322.31814 C1087.90716,322.314451 1087.90529,322.310749 1087.90343,322.307033 L1086.56713,319.632448 C1086.26954,319.036829 1086.51035,318.312345 1087.10499,318.014267 C1087.69963,317.716189 1088.42292,317.957392 1088.72051,318.55301 L1088.99333,319.099067 Z M1094.64917,307.68186 C1094.76075,307.449957 1094.94701,307.251899 1095.19462,307.127777 C1095.78926,306.829699 1096.51255,307.070902 1096.81014,307.666521 L1098.14644,310.341106 C1098.44403,310.936725 1098.20322,311.661209 1097.60858,311.959287 C1097.01394,312.257365 1096.29065,312.016162 1095.99306,311.420544 L1095.73345,310.900933 L1095.46062,311.44699 C1095.16304,312.042608 1094.43974,312.283811 1093.8451,311.985733 C1093.25046,311.687655 1093.00966,310.963171 1093.30725,310.367552 L1094.64355,307.692967 C1094.6454,307.689251 1094.64728,307.685549 1094.64917,307.68186 Z M1075.14742,319.099067 L1075.40703,318.579456 C1075.70462,317.983838 1076.42791,317.742635 1077.02255,318.040713 C1077.61719,318.338791 1077.858,319.063275 1077.56041,319.658894 L1076.22411,322.333479 C1075.92652,322.929098 1075.20322,323.170301 1074.60859,322.872223 C1074.36097,322.748101 1074.17471,322.550043 1074.06313,322.31814 C1074.06124,322.314451 1074.05937,322.310749 1074.05751,322.307033 L1072.72121,319.632448 C1072.42362,319.036829 1072.66443,318.312345 1073.25907,318.014267 C1073.85371,317.716189 1074.577,317.957392 1074.87459,318.55301 L1075.14742,319.099067 Z M1080.80325,307.68186 C1080.91483,307.449957 1081.10109,307.251899 1081.3487,307.127777 C1081.94334,306.829699 1082.66663,307.070902 1082.96422,307.666521 L1084.30052,310.341106 C1084.59811,310.936725 1084.3573,311.661209 1083.76266,311.959287 C1083.16803,312.257365 1082.44473,312.016162 1082.14714,311.420544 L1081.88753,310.900933 L1081.61471,311.44699 C1081.31712,312.042608 1080.59382,312.283811 1079.99919,311.985733 C1079.40455,311.687655 1079.16374,310.963171 1079.46133,310.367552 L1080.79763,307.692967 C1080.79949,307.689251 1080.80136,307.685549 1080.80325,307.68186 Z M1061.3015,319.099067 L1061.56111,318.579456 C1061.8587,317.983838 1062.58199,317.742635 1063.17663,318.040713 C1063.77127,318.338791 1064.01208,319.063275 1063.71449,319.658894 L1062.37819,322.333479 C1062.0806,322.929098 1061.35731,323.170301 1060.76267,322.872223 C1060.51506,322.748101 1060.3288,322.550043 1060.21722,322.31814 C1060.21533,322.314451 1060.21345,322.310749 1060.2116,322.307033 L1058.87529,319.632448 C1058.57771,319.036829 1058.81851,318.312345 1059.41315,318.014267 C1060.00779,317.716189 1060.73108,317.957392 1061.02867,318.55301 L1061.3015,319.099067 Z M1066.95733,307.68186 C1067.06891,307.449957 1067.25517,307.251899 1067.50278,307.127777 C1068.09742,306.829699 1068.82071,307.070902 1069.1183,307.666521 L1070.4546,310.341106 C1070.75219,310.936725 1070.51139,311.661209 1069.91675,311.959287 C1069.32211,312.257365 1068.59881,312.016162 1068.30123,311.420544 L1068.04161,310.900933 L1067.76879,311.44699 C1067.4712,312.042608 1066.74791,312.283811 1066.15327,311.985733 C1065.55863,311.687655 1065.31782,310.963171 1065.61541,310.367552 L1066.95171,307.692967 C1066.95357,307.689251 1066.95544,307.685549 1066.95733,307.68186 Z M1047.45558,319.099067 L1047.71519,318.579456 C1048.01278,317.983838 1048.73607,317.742635 1049.33071,318.040713 C1049.92535,318.338791 1050.16616,319.063275 1049.86857,319.658894 L1048.53227,322.333479 C1048.23468,322.929098 1047.51139,323.170301 1046.91675,322.872223 C1046.66914,322.748101 1046.48288,322.550043 1046.3713,322.31814 C1046.36941,322.314451 1046.36753,322.310749 1046.36568,322.307033 L1045.02938,319.632448 C1044.73179,319.036829 1044.9726,318.312345 1045.56723,318.014267 C1046.16187,317.716189 1046.88517,317.957392 1047.18275,318.55301 L1047.45558,319.099067 Z M1053.11141,307.68186 C1053.22299,307.449957 1053.40925,307.251899 1053.65686,307.127777 C1054.2515,306.829699 1054.9748,307.070902 1055.27239,307.666521 L1056.60869,310.341106 C1056.90628,310.936725 1056.66547,311.661209 1056.07083,311.959287 C1055.47619,312.257365 1054.7529,312.016162 1054.45531,311.420544 L1054.1957,310.900933 L1053.92287,311.44699 C1053.62528,312.042608 1052.90199,312.283811 1052.30735,311.985733 C1051.71271,311.687655 1051.4719,310.963171 1051.76949,310.367552 L1053.10579,307.692967 C1053.10765,307.689251 1053.10952,307.685549 1053.11141,307.68186 Z M1039.12757,308.745958 C1038.82998,308.15034 1039.07079,307.425855 1039.66542,307.127777 C1040.26006,306.829699 1040.98336,307.070902 1041.28095,307.666521 L1042.61725,310.341106 C1042.91484,310.936725 1042.67403,311.661209 1042.07939,311.959287 C1041.48475,312.257365 1040.76146,312.016162 1040.46387,311.420544 L1039.12757,308.745958 Z M1042.13755,314.173585 C1041.83996,313.577715 1042.08077,312.852924 1042.67541,312.55472 C1043.27005,312.256516 1043.99334,312.497821 1044.29093,313.093691 L1045.62723,315.769408 C1045.92482,316.365278 1045.68401,317.090069 1045.08937,317.388273 C1044.49473,317.686478 1043.77144,317.445172 1043.47385,316.849302 L1042.13755,314.173585 Z M1051.51488,316.847432 C1051.2173,317.443051 1050.494,317.684254 1049.89936,317.386176 C1049.30473,317.088098 1049.06392,316.363613 1049.36151,315.767995 L1050.69781,313.093409 C1050.9954,312.497791 1051.71869,312.256588 1052.31333,312.554666 C1052.90797,312.852744 1053.14877,313.577228 1052.85119,314.172847 L1051.51488,316.847432 Z M1055.98347,314.173585 C1055.68588,313.577715 1055.92669,312.852924 1056.52132,312.55472 C1057.11596,312.256516 1057.83926,312.497821 1058.13685,313.093691 L1059.47315,315.769408 C1059.77074,316.365278 1059.52993,317.090069 1058.93529,317.388273 C1058.34065,317.686478 1057.61736,317.445172 1057.31977,316.849302 L1055.98347,314.173585 Z M1065.3608,316.847432 C1065.06321,317.443051 1064.33992,317.684254 1063.74528,317.386176 C1063.15064,317.088098 1062.90984,316.363613 1063.20742,315.767995 L1064.54373,313.093409 C1064.84131,312.497791 1065.56461,312.256588 1066.15925,312.554666 C1066.75389,312.852744 1066.99469,313.577228 1066.6971,314.172847 L1065.3608,316.847432 Z M1069.82938,314.173585 C1069.5318,313.577715 1069.7726,312.852924 1070.36724,312.55472 C1070.96188,312.256516 1071.68517,312.497821 1071.98276,313.093691 L1073.31907,315.769408 C1073.61665,316.365278 1073.37585,317.090069 1072.78121,317.388273 C1072.18657,317.686478 1071.46327,317.445172 1071.16569,316.849302 L1069.82938,314.173585 Z M1079.20672,316.847432 C1078.90913,317.443051 1078.18584,317.684254 1077.5912,317.386176 C1076.99656,317.088098 1076.75575,316.363613 1077.05334,315.767995 L1078.38964,313.093409 C1078.68723,312.497791 1079.41053,312.256588 1080.00516,312.554666 C1080.5998,312.852744 1080.84061,313.577228 1080.54302,314.172847 L1079.20672,316.847432 Z M1083.6753,314.173585 C1083.37771,313.577715 1083.61852,312.852924 1084.21316,312.55472 C1084.8078,312.256516 1085.53109,312.497821 1085.82868,313.093691 L1087.16498,315.769408 C1087.46257,316.365278 1087.22176,317.090069 1086.62713,317.388273 C1086.03249,317.686478 1085.30919,317.445172 1085.0116,316.849302 L1083.6753,314.173585 Z M1093.05264,316.847432 C1092.75505,317.443051 1092.03176,317.684254 1091.43712,317.386176 C1090.84248,317.088098 1090.60167,316.363613 1090.89926,315.767995 L1092.23556,313.093409 C1092.53315,312.497791 1093.25644,312.256588 1093.85108,312.554666 C1094.44572,312.852744 1094.68653,313.577228 1094.38894,314.172847 L1093.05264,316.847432 Z M1097.52122,314.173585 C1097.22363,313.577715 1097.46444,312.852924 1098.05908,312.55472 C1098.65372,312.256516 1099.37701,312.497821 1099.6746,313.093691 L1101.0109,315.769408 C1101.30849,316.365278 1101.06768,317.090069 1100.47304,317.388273 C1099.8784,317.686478 1099.15511,317.445172 1098.85752,316.849302 L1097.52122,314.173585 Z M1106.89856,316.847432 C1106.60097,317.443051 1105.87767,317.684254 1105.28304,317.386176 C1104.6884,317.088098 1104.44759,316.363613 1104.74518,315.767995 L1106.08148,313.093409 C1106.37907,312.497791 1107.10236,312.256588 1107.697,312.554666 C1108.29164,312.852744 1108.53245,313.577228 1108.23486,314.172847 L1106.89856,316.847432 Z M1111.36714,314.173585 C1111.06955,313.577715 1111.31036,312.852924 1111.905,312.55472 C1112.49964,312.256516 1113.22293,312.497821 1113.52052,313.093691 L1114.85682,315.769408 C1115.15441,316.365278 1114.9136,317.090069 1114.31896,317.388273 C1113.72432,317.686478 1113.00103,317.445172 1112.70344,316.849302 L1111.36714,314.173585 Z M1120.74447,316.847432 C1120.44689,317.443051 1119.72359,317.684254 1119.12895,317.386176 C1118.53431,317.088098 1118.29351,316.363613 1118.5911,315.767995 L1119.9274,313.093409 C1120.22499,312.497791 1120.94828,312.256588 1121.54292,312.554666 C1122.13756,312.852744 1122.37836,313.577228 1122.08078,314.172847 L1120.74447,316.847432 Z M1125.21306,314.173585 C1124.91547,313.577715 1125.15628,312.852924 1125.75091,312.55472 C1126.34555,312.256516 1127.06885,312.497821 1127.36643,313.093691 L1128.70274,315.769408 C1129.00032,316.365278 1128.75952,317.090069 1128.16488,317.388273 C1127.57024,317.686478 1126.84695,317.445172 1126.54936,316.849302 L1125.21306,314.173585 Z M1134.59039,316.847432 C1134.2928,317.443051 1133.56951,317.684254 1132.97487,317.386176 C1132.38023,317.088098 1132.13943,316.363613 1132.43701,315.767995 L1133.77332,313.093409 C1134.0709,312.497791 1134.7942,312.256588 1135.38884,312.554666 C1135.98347,312.852744 1136.22428,313.577228 1135.92669,314.172847 L1134.59039,316.847432 Z M1139.05897,314.173585 C1138.76139,313.577715 1139.00219,312.852924 1139.59683,312.55472 C1140.19147,312.256516 1140.91476,312.497821 1141.21235,313.093691 L1142.54865,315.769408 C1142.84624,316.365278 1142.60544,317.090069 1142.0108,317.388273 C1141.41616,317.686478 1140.69286,317.445172 1140.39528,316.849302 L1139.05897,314.173585 Z M1148.43631,316.847432 C1148.13872,317.443051 1147.41543,317.684254 1146.82079,317.386176 C1146.22615,317.088098 1145.98534,316.363613 1146.28293,315.767995 L1147.61923,313.093409 C1147.91682,312.497791 1148.64011,312.256588 1149.23475,312.554666 C1149.82939,312.852744 1150.0702,313.577228 1149.77261,314.172847 L1148.43631,316.847432 Z M1152.90489,314.173585 C1152.6073,313.577715 1152.84811,312.852924 1153.44275,312.55472 C1154.03739,312.256516 1154.76068,312.497821 1155.05827,313.093691 L1156.39457,315.769408 C1156.69216,316.365278 1156.45135,317.090069 1155.85671,317.388273 C1155.26208,317.686478 1154.53878,317.445172 1154.24119,316.849302 L1152.90489,314.173585 Z M1162.28223,316.847432 C1161.98464,317.443051 1161.26135,317.684254 1160.66671,317.386176 C1160.07207,317.088098 1159.83126,316.363613 1160.12885,315.767995 L1161.46515,313.093409 C1161.76274,312.497791 1162.48603,312.256588 1163.08067,312.554666 C1163.67531,312.852744 1163.91612,313.577228 1163.61853,314.172847 L1162.28223,316.847432 Z M1166.75081,314.173585 C1166.45322,313.577715 1166.69403,312.852924 1167.28867,312.55472 C1167.88331,312.256516 1168.6066,312.497821 1168.90419,313.093691 L1170.24049,315.769408 C1170.53808,316.365278 1170.29727,317.090069 1169.70263,317.388273 C1169.10799,317.686478 1168.3847,317.445172 1168.08711,316.849302 L1166.75081,314.173585 Z M1176.12815,316.847432 C1175.83056,317.443051 1175.10726,317.684254 1174.51262,317.386176 C1173.91799,317.088098 1173.67718,316.363613 1173.97477,315.767995 L1175.31107,313.093409 C1175.60866,312.497791 1176.33195,312.256588 1176.92659,312.554666 C1177.52123,312.852744 1177.76204,313.577228 1177.46445,314.172847 L1176.12815,316.847432 Z M1178.53613,311.44699 C1178.23854,312.042608 1177.51525,312.283811 1176.92061,311.985733 C1176.32597,311.687655 1176.08516,310.963171 1176.38275,310.367552 L1177.71905,307.692967 C1178.01664,307.097348 1178.73994,306.856145 1179.33458,307.154223 C1179.92921,307.452301 1180.17002,308.176786 1179.87243,308.772404 L1178.53613,311.44699 Z" id="make_pattern" fill="#04E400"></path>
                </g>
            </g>
        </g>
    </g>
</svg>